HIERARCHY
ROOT Hips
{
	OFFSET 0.0000 0.0000 0.0000
	CHANNELS 6 Xposition Yposition Zposition Zrotation Xrotation Yrotation
	JOINT Ab
	{
		OFFSET -0.0000 8.0846 -0.0000
		CHANNELS 3 Zrotation Xrotation Yrotation
		JOINT Chest
		{
			OFFSET -0.0000 25.0068 -0.0000
			CHANNELS 3 Zrotation Xrotation Yrotation
			JOINT Neck
			{
				OFFSET -0.0000 25.0068 0.0000
				CHANNELS 3 Zrotation Xrotation Yrotation
				JOINT Head
				{
					OFFSET -0.0000 10.7556 0.0000
					CHANNELS 3 Zrotation Xrotation Yrotation
					End Site
					{
						OFFSET -0.0000 16.6222 0.0000
					}
				}
			}
			JOINT LeftCollar
			{
				OFFSET -0.0000 25.0068 0.0000
				CHANNELS 3 Zrotation Xrotation Yrotation
				JOINT LeftShoulder
				{
					OFFSET 19.5556 -0.0000 0.0000
					CHANNELS 3 Zrotation Xrotation Yrotation
					JOINT LeftElbow
					{
						OFFSET 27.1828 0.0000 0.0000
						CHANNELS 3 Zrotation Xrotation Yrotation
						JOINT LeftWrist
						{
							OFFSET 23.3157 0.0000 0.0000
							CHANNELS 3 Zrotation Xrotation Yrotation
							End Site
							{
								OFFSET 0.0000 -14.6667 0.0000
							}
						}
					}
				}
			}
			JOINT RightCollar
			{
				OFFSET -0.0000 25.0068 0.0000
				CHANNELS 3 Zrotation Xrotation Yrotation
				JOINT RightShoulder
				{
					OFFSET -19.5556 0.0000 0.0000
					CHANNELS 3 Zrotation Xrotation Yrotation
					JOINT RightElbow
					{
						OFFSET -27.1828 0.0000 0.0000
						CHANNELS 3 Zrotation Xrotation Yrotation
						JOINT RightWrist
						{
							OFFSET -23.3157 0.0000 0.0000
							CHANNELS 3 Zrotation Xrotation Yrotation
							End Site
							{
								OFFSET -0.0000 -14.6667 0.0000
							}
						}
					}
				}
			}
		}
	}
	JOINT LeftHip
	{
		OFFSET 11.7333 0.0000 0.0000
		CHANNELS 3 Zrotation Xrotation Yrotation
		JOINT LeftKnee
		{
			OFFSET -0.0000 -40.8688 0.0000
			CHANNELS 3 Zrotation Xrotation Yrotation
			JOINT LeftAnkle
			{
				OFFSET -0.0000 -44.4337 0.0000
				CHANNELS 3 Zrotation Xrotation Yrotation
				End Site
				{
					OFFSET -0.0000 -4.8889 16.6222
				}
			}
		}
	}
	JOINT RightHip
	{
		OFFSET -11.7333 0.0000 0.0000
		CHANNELS 3 Zrotation Xrotation Yrotation
		JOINT RightKnee
		{
			OFFSET -0.0000 -40.8688 0.0000
			CHANNELS 3 Zrotation Xrotation Yrotation
			JOINT RightAnkle
			{
				OFFSET -0.0000 -44.4337 0.0000
				CHANNELS 3 Zrotation Xrotation Yrotation
				End Site
				{
					OFFSET -0.0000 -4.8889 16.6222
				}
			}
		}
	}
}
MOTION
Frames: 16
Frame Time: 0.010000
-2.9573 88.7192 188.4935 2.3356 359.9457 175.3566 1.8822 359.2641 358.6950 359.2417 12.1826 358.7643 2.1532 339.9084 1.2291 2.7365 2.2959 0.7926 338.3916 358.4608 8.0442 301.0075 31.8300 355.1101 17.7515 354.0053 322.9035 82.1852 0.9913 343.7928 22.3642 359.2792 356.2812 58.3814 44.4484 10.3076 337.1038 354.0608 28.7279 277.6823 352.9775 19.3157 1.8080 358.4090 357.1566 358.9359 10.5036 359.3255 1.3034 352.2958 22.7962 1.2428 352.1651 359.6051 358.9116 18.7759 8.8916 355.6880 345.6153 337.9567 
-2.9554 88.7213 188.4966 2.3329 359.9276 175.3414 1.8619 359.2815 358.6934 359.2563 12.1899 358.7608 2.2058 339.9161 1.2587 2.6136 2.3377 0.8157 338.3881 358.4458 8.0854 300.9533 32.0162 355.1403 17.8385 353.9731 322.8940 82.1038 1.0039 343.9321 22.3594 359.2590 356.2683 58.3638 44.4322 10.3139 337.1059 354.0357 28.7818 277.7032 352.9307 19.3919 1.8126 358.3817 357.1519 358.9229 10.5243 359.3339 1.0383 352.2237 22.7591 1.2490 352.1343 359.6260 358.9036 18.7992 8.9095 355.6825 345.5825 337.9352 
-2.9547 88.7233 188.4890 2.3277 359.9380 175.3291 1.8519 359.3227 358.6799 359.2575 12.1931 358.7497 2.2244 339.9324 1.2940 2.5567 2.3749 0.8510 338.3755 358.4697 8.0963 300.9150 32.0340 355.1893 17.7151 354.0241 322.8776 82.3545 0.9249 344.0774 22.3643 359.2447 356.2296 58.2924 44.4666 10.3608 337.1428 354.0369 28.8323 277.7570 353.0895 19.3912 1.8079 358.4132 357.1530 358.9184 10.4978 359.3468 1.2709 352.2773 22.7979 1.2414 352.1486 359.6560 358.9129 18.7975 8.9253 355.6949 345.5563 337.9132 
-2.9523 88.7251 188.4847 2.3296 359.9414 175.3185 1.8447 359.3585 358.6686 359.2619 12.2023 358.7383 2.2627 339.9503 1.3601 2.4832 2.3964 0.8844 338.3683 358.4468 8.1231 300.8617 32.0902 355.2349 17.7694 353.9698 322.7904 82.0426 0.9572 343.9962 22.3636 359.2463 356.2177 58.2500 44.4818 10.3924 337.1611 354.0525 28.8544 277.7240 353.0964 19.4250 1.8141 358.4205 357.1538 358.9155 10.5017 359.3155 1.3183 352.2661 22.8339 1.2470 352.1453 359.6808 358.9123 18.8234 8.9133 355.7338 345.5150 337.9288 
-2.9516 88.7264 188.4759 2.3269 359.9538 175.3132 1.8064 359.3821 358.6663 359.3418 12.2805 358.7283 2.1977 339.8530 1.3706 2.4442 2.4859 0.9345 338.3566 358.4239 8.1705 300.8133 32.2561 355.2352 17.8001 353.9628 322.7506 81.9182 0.9337 344.0185 22.2879 359.2381 356.1666 58.1690 44.5196 10.5184 337.1513 354.0367 28.8833 277.6877 353.1176 19.4523 1.8105 358.4359 357.1424 358.9084 10.5078 359.3428 1.3163 352.2586 22.8249 1.2421 352.1620 359.7110 358.9255 18.8258 8.8652 355.7170 345.4680 337.9422 
-2.9520 88.7276 188.4666 2.3196 359.9504 175.3129 1.7808 359.3930 358.6588 359.3847 12.3353 358.7171 2.1907 339.8107 1.4025 2.3677 2.5177 0.9688 338.3421 358.4288 8.1826 300.7790 32.3252 355.2681 17.7307 353.9965 322.6778 81.9517 0.9532 344.0136 22.2429 359.2483 356.1231 58.0926 44.5235 10.6195 337.1890 354.0377 28.9181 277.6826 353.1475 19.4956 1.8050 358.4326 357.1264 358.8991 10.5187 359.3394 1.3370 352.2508 22.8512 1.2309 352.1592 359.7370 358.9366 18.8388 8.8750 355.7401 345.4240 337.9210 
-2.9520 88.7290 188.4592 2.3135 359.9400 175.3182 1.7710 359.4180 358.6497 359.3836 12.3356 358.7092 2.2297 339.8378 1.4414 2.2824 2.5037 0.9950 338.3371 358.4280 8.2025 300.7370 32.4013 355.3024 17.7100 353.9988 322.6390 81.9643 0.9625 344.0422 22.2374 359.2482 356.1029 58.0566 44.5341 10.6472 337.0684 353.9941 28.9721 277.9288 353.2517 19.0545 1.8033 358.4163 357.1202 358.8925 10.5372 359.3263 1.3470 352.2322 22.8653 1.2222 352.1453 359.7611 358.9466 18.8619 8.8792 355.7772 345.3679 337.8695 
-2.9523 88.7304 188.4500 2.3093 359.9365 175.3314 1.7663 359.4551 358.6398 359.3731 12.3251 358.7011 2.2532 339.8749 1.4705 2.2367 2.4796 1.0188 338.3405 358.4215 8.2071 300.6794 32.4246 355.3593 17.6688 353.9944 322.5877 81.9593 0.9649 344.0234 22.2396 359.2306 356.0760 58.0091 44.5740 10.6742 336.9367 353.9472 29.0154 278.1256 353.3076 18.6284 1.8013 358.4005 357.1064 358.8826 10.5656 359.3482 1.2028 352.1864 22.8263 1.2133 352.1456 359.7876 358.9628 18.8735 8.8402 355.8132 345.3082 337.8485 
-2.9506 88.7309 188.4321 2.3041 359.9496 175.3424 1.7402 359.4948 358.6419 359.3826 12.3346 358.7008 2.2659 339.8877 1.4893 2.1978 2.4746 1.0379 338.3310 358.4126 8.2499 300.6583 32.5613 355.3632 17.6692 353.9823 322.6193 81.9951 0.9262 344.0498 22.2338 359.2256 356.0516 57.9569 44.5988 10.7041 336.9592 353.9471 29.0244 278.1525 353.1626 18.6059 1.7993 358.4120 357.0937 358.8696 10.5855 359.3471 0.9807 352.1176 22.7975 1.2033 352.1749 359.8201 358.9783 18.8717 8.8062 355.8134 345.2704 337.8531 
-2.9495 88.7304 188.4138 2.2995 359.9485 175.3620 1.7230 359.5203 358.6395 359.3784 12.3353 358.7005 2.3034 339.9262 1.5090 2.1409 2.4419 1.0544 338.3264 358.3878 8.2860 300.6397 32.8078 355.3820 17.7790 353.9360 322.6846 82.0872 0.8679 344.2541 22.2376 359.2082 356.0213 57.9160 44.5949 10.7094 336.9549 353.9557 29.0554 278.2903 352.8185 18.5961 1.8030 358.4155 357.0557 358.8506 10.5965 359.3048 1.1184 352.1244 22.8722 1.1970 352.1905 359.8508 358.9886 18.8774 8.8284 355.9002 345.1768 337.8037 
-2.9510 88.7306 188.4028 2.2904 359.9079 175.4298 1.7173 359.5098 358.6124 359.3653 12.3387 358.6757 2.3197 339.9395 1.5065 2.0986 2.4288 1.0488 338.3177 358.4184 8.2634 300.6176 32.7829 355.4098 17.6503 354.0024 322.7495 82.4472 0.7706 344.3230 22.2498 359.1892 355.9897 57.8867 44.5170 10.6651 337.0078 353.9480 29.2336 278.2516 352.8455 18.6045 1.7948 358.3369 357.0041 358.8452 10.6614 359.3028 1.3753 352.1556 22.9092 1.1764 352.1758 359.8555 359.0163 18.8699 8.9023 355.8664 345.1651 337.6683 
-2.9523 88.7307 188.3864 2.2822 359.8917 175.4504 1.6894 359.5344 358.6260 359.3712 12.3291 358.6894 2.2897 339.9428 1.5045 2.1317 2.4434 1.0514 338.3075 358.4264 8.2464 300.5508 32.6473 355.4635 17.6071 354.0191 322.7329 82.6827 0.7191 344.2963 22.2351 359.2224 355.9953 57.8675 44.4944 10.6737 337.0605 353.9331 29.3026 278.2653 352.9012 18.6083 1.7901 358.3148 356.9991 358.8322 10.6945 359.3250 1.0614 352.0879 22.8340 1.1627 352.1689 359.8862 359.0324 18.8819 8.8609 355.7667 345.2026 337.6608 
-2.9570 88.7296 188.3622 2.2719 359.8857 175.4749 1.6700 359.5424 358.6298 359.3650 12.3494 358.6930 2.3378 339.9582 1.5188 2.0636 2.4288 1.0583 338.3010 358.4372 8.2472 300.5121 32.6446 355.4640 17.6644 353.9959 322.8110 82.7316 0.6460 344.3301 22.2378 359.2153 355.9608 57.7821 44.5290 10.7386 337.0218 353.9189 29.3747 278.2705 352.9143 18.5678 1.7755 358.3036 356.9956 358.8307 10.7251 359.2910 1.0815 352.0527 22.8486 1.1394 352.1974 359.9096 359.0569 18.8466 8.7451 355.9010 345.1050 337.7491 
-2.9604 88.7300 188.3420 2.2642 359.8662 175.5127 1.6465 359.5450 358.6321 359.3711 12.3727 358.6953 2.3284 339.9381 1.5116 2.0663 2.4421 1.0513 338.3107 358.4465 8.1842 300.3963 32.3706 355.5383 17.6251 354.0309 322.8074 82.8074 0.5936 344.2006 22.2311 359.1990 355.9301 57.7282 44.5413 10.7862 337.0363 353.8912 29.4402 278.2114 352.9621 18.5899 1.7728 358.2677 356.9444 358.8095 10.7702 359.2646 1.0996 352.0116 22.8961 1.1207 352.2009 359.9404 359.0850 18.8378 8.6611 355.8903 345.0900 337.7743 
-2.9649 88.7307 188.3112 2.2554 359.8686 175.5483 1.6501 359.5730 358.6248 359.3344 12.3686 358.6919 2.3848 339.9627 1.5417 2.0075 2.4242 1.0749 338.3202 358.4483 8.1794 300.3264 32.2370 355.5611 17.6620 354.0316 322.8549 82.7871 0.5253 344.1264 22.2419 359.2029 355.9117 57.6682 44.5573 10.8214 337.0799 353.8854 29.4862 278.1857 352.9356 18.6246 1.7621 358.2667 356.9215 358.8014 10.8039 359.2694 1.1194 351.9687 22.8804 1.0964 352.2449 359.9740 359.1176 18.8077 8.5932 355.8745 345.0825 337.7740 
-2.9717 88.7320 188.2891 2.2471 359.8361 175.6033 1.6605 359.5883 358.6065 359.2941 12.3326 358.6787 2.4790 339.9610 1.5854 1.8747 2.4805 1.1045 338.3303 358.4288 8.1895 300.2646 32.1189 355.5856 17.6858 354.0187 322.9001 82.7728 0.4826 344.0461 22.2566 359.2104 355.8954 57.5919 44.5983 10.8818 337.0842 353.8971 29.4992 278.1606 352.9077 18.5999 1.7532 358.2113 356.8875 358.7923 10.8574 359.2394 1.1270 351.9169 22.8903 1.0688 352.2497 0.0027 359.1604 18.7788 8.4904 355.8401 345.0940 337.7856 
